<svg width="601" height="129" viewBox="0 0 601 129" fill="none" xmlns="http://www.w3.org/2000/svg">
<path d="M347.7 79.1L383.7 43.9H348.2V27.4H408.8V44.2L372.8 79.3H409.5V95.9H347.6V79.1H347.7Z" fill="white"/>
<path d="M340.8 4.79999H322.1V21.8H340.8V4.79999Z" fill="white"/>
<path d="M340.5 27.5H321.8V96H340.5V27.5Z" fill="white"/>
<path d="M95 61.5C95.1 41.9 111 26.1 130.6 26.2C150.2 26.3 166 42.2 165.9 61.8C165.8 81.3 150 97.1 130.4 97.1C110.9 97.1 95 81.3 94.9 61.8C95 61.7 95 61.6 95 61.5ZM147.8 61.5C147.8 51.8 140.1 43.7 130.6 43.7C120.9 43.7 113.5 51.8 113.5 61.5C113.5 71.2 120.9 79.3 130.6 79.3C140.1 79.3 147.8 71.2 147.8 61.5Z" fill="white"/>
<path d="M250.6 27.3H269.2V35C273.6 29.4 280.3 26 288.1 26C304.3 26 314 36.4 314 54.1V95.9H295V56.6C295 47.4 290.7 42.1 282.4 42.1C275.3 42.1 269.4 47 269.4 58.5V95.9H250.7V27.3H250.6Z" fill="white"/>
<path d="M410.6 61.5C410.6 37.3 428.4 25.9 443.9 25.9C452.8 25.9 459.8 29.2 464.3 34V27.3H483V95.8H464.3V88.1C459.8 93.4 452.5 97.1 443.6 97.1C429.1 97.1 410.6 85.6 410.6 61.5ZM464.8 61.4C464.8 51.3 457.4 43.1 447.3 43.1C436.9 43.1 429 50.9 429 61.4C429 71.9 436.9 79.9 447.3 79.9C457.5 79.9 464.9 71.5 464.8 61.4Z" fill="white"/>
<path d="M490.6 27.3H509.2V35C513.6 29.4 520.3 26 528.1 26C544.3 26 554 36.4 554 54.1V95.9H535V56.6C535 47.4 530.8 42.1 522.4 42.1C515.3 42.1 509.4 47 509.4 58.5V95.9H490.7L490.6 27.3Z" fill="white"/>
<path d="M347.7 95.7V79L383.7 43.8H348.2V27.3H408.8V44.1L372.8 79.2" fill="white"/>
<path d="M75 60.9L74.8 61.5C69.6 72.4 60.1 78.7 48.7 78.7C32.1 78.7 19.2 65.6 19.2 48.9C19.2 31.7 32.1 18.9 49.1 18.9C60.2 18.9 68.5 24.1 74.1 34.3L74.4 34.9L91.1 24.2L90.8 23.7C82.1 8.90001 66.6 0.100006 49.1 0.100006C21.3 0.100006 0.200012 21.1 0.200012 49C0.200012 77.3 20.7 97.8 49 97.8C67.2 97.8 83.3 87.7 92.1 70.7L92.4 70.2L75 60.9Z" fill="white"/>
<path d="M170.7 61.5C170.7 37.3 188.5 25.9 204 25.9C212.9 25.9 219.9 29.6 224.4 34.7V27.3H243.1V93.8C243.1 113.1 230.9 128.7 207.8 128.7C190.4 128.7 177.7 119.7 172.2 109L188.7 99.7C192.3 106.8 198.5 111.3 207.7 111.3C217.8 111.3 224.2 103.4 224.2 94.5V88.1C219.7 93.4 212.4 97.1 203.5 97.1C189.1 97.1 170.7 85.6 170.7 61.5ZM224.9 61.4C224.9 51.3 217.5 43.1 207.4 43.1C197 43.1 189.1 50.9 189.1 61.4C189.1 71.9 197 79.9 207.4 79.9C217.5 79.9 224.9 71.5 224.9 61.4Z" fill="white"/>
<path d="M600.2 44.2V27.4H587.3V4.79999H568.6V27.4H556.9V44.2H568.5V66C568.5 88.3 575.6 95.7 597.4 95.7H600.1V78.2C588.6 78.2 587.2 76.6 587.2 65.9V44.2H600.2Z" fill="white"/>
</svg>
